<?xml version="1.0" encoding="utf-8"?>
<!-- Generator: Adobe Illustrator 20.0.0, SVG Export Plug-In . SVG Version: 6.00 Build 0)  -->
<svg version="1.1" id="レイヤー_1" xmlns="http://www.w3.org/2000/svg" xmlns:xlink="http://www.w3.org/1999/xlink" x="0px"
	 y="0px" viewBox="0 0 512 512" style="enable-background:new 0 0 512 512;" xml:space="preserve">
<style type="text/css">
	.st0{fill:#FFAA2B;}
	.st1{fill:#3B3323;}
	.st2{opacity:0.302;}
</style>
<g id="レイヤー_8">
	<g>
		<g id="Frame_2_">
			<g>
				<rect x="44.7" y="43.8" class="st0" width="422.5" height="424.9"/>
			</g>
		</g>
		<g id="Background_2_">
			<g>
				<rect x="76.9" y="77.9" class="st1" width="357.3" height="356.7"/>
			</g>
		</g>
		<g id="Shadow2_2_" class="st2">
			<g>
				<path d="M347,162.7c0.8,0.6-23.7,27.1-23.7,27.1l31.7,25.8l-29.1,22.3L253,165.4l-34.7,8.7l-22,72.6l-39.8,98.8l121.9,89.2
					h155.8V235.3C434.2,235.3,346.2,162.2,347,162.7z"/>
			</g>
		</g>
		<g id="Shadow_1_" class="st2">
			<g>
				<rect x="76.9" y="77.9" width="357.3" height="12.2"/>
			</g>
		</g>
		<g id="Ai_1_">
			<g>
				<path class="st0" d="M204.8,294.4l-15,51h-32.9l55.9-180h40.6l56.6,180h-34.1l-15.8-51H204.8z M254.7,269.5L241,225.2
					c-3.4-10.9-6.2-23.2-8.8-33.7h-0.5c-2.6,10.4-5.2,23-8.3,33.7L210,269.5H254.7z"/>
				<path class="st0" d="M356.6,179c0,9.9-7,17.6-18.1,17.6c-10.6,0-17.6-7.7-17.6-17.6c0-10.1,7.2-17.9,17.8-17.9
					C349.6,161.1,356.4,168.8,356.6,179z M322.7,345.4V215.3h32.1v130.1L322.7,345.4L322.7,345.4z"/>
			</g>
		</g>
	</g>
</g>
</svg>
