<?xml version="1.0" encoding="utf-8"?>
<!-- Generator: Adobe Illustrator 20.0.0, SVG Export Plug-In . SVG Version: 6.00 Build 0)  -->
<svg version="1.1" xmlns="http://www.w3.org/2000/svg" xmlns:xlink="http://www.w3.org/1999/xlink" x="0px" y="0px"
	 viewBox="0 0 512 512" style="enable-background:new 0 0 512 512;" xml:space="preserve">
<style type="text/css">
	.st0{display:none;}
	.st1{display:inline;fill:#E44D26;}
	.st2{display:inline;fill:#F16529;}
	.st3{display:inline;fill:#EBEBEB;}
	.st4{display:inline;}
	.st5{display:inline;fill:#FFFFFF;}
	.st6{fill:#131313;}
	.st7{fill:#1572B6;}
	.st8{fill:#33A9DC;}
	.st9{fill:#FFFFFF;}
	.st10{fill:#EBEBEB;}
	.st11{clip-path:url(#SVGID_2_);fill:#CF6296;}
	.st12{fill-rule:evenodd;clip-rule:evenodd;fill:#CE6195;}
	.st13{fill:#0C60A9;}
	.st14{display:inline;fill-rule:evenodd;clip-rule:evenodd;fill:url(#SVGID_3_);}
	.st15{display:inline;fill-rule:evenodd;clip-rule:evenodd;fill:url(#SVGID_4_);}
	.st16{display:inline;fill-rule:evenodd;clip-rule:evenodd;fill:url(#SVGID_5_);}
	.st17{display:inline;fill-rule:evenodd;clip-rule:evenodd;fill:url(#SVGID_6_);}
	.st18{display:inline;fill-rule:evenodd;clip-rule:evenodd;fill:url(#SVGID_7_);}
	.st19{display:inline;fill-rule:evenodd;clip-rule:evenodd;fill:url(#SVGID_8_);}
	.st20{display:inline;fill-rule:evenodd;clip-rule:evenodd;fill:url(#SVGID_9_);}
	.st21{display:inline;fill-rule:evenodd;clip-rule:evenodd;fill:url(#SVGID_10_);}
	.st22{display:inline;fill-rule:evenodd;clip-rule:evenodd;fill:#FFFFFF;}
	.st23{display:inline;fill-rule:evenodd;clip-rule:evenodd;fill:url(#SVGID_11_);}
	.st24{display:inline;fill-rule:evenodd;clip-rule:evenodd;fill:url(#SVGID_12_);}
	.st25{display:inline;fill-rule:evenodd;clip-rule:evenodd;fill:url(#SVGID_13_);}
	.st26{display:inline;fill-rule:evenodd;clip-rule:evenodd;fill:url(#SVGID_14_);}
	.st27{display:inline;fill-rule:evenodd;clip-rule:evenodd;fill:#AB3628;}
	.st28{display:inline;fill-rule:evenodd;clip-rule:evenodd;fill:url(#SVGID_15_);}
	.st29{display:inline;fill-rule:evenodd;clip-rule:evenodd;fill:url(#SVGID_16_);}
	.st30{display:inline;fill-rule:evenodd;clip-rule:evenodd;fill:url(#SVGID_17_);}
	.st31{display:inline;fill-rule:evenodd;clip-rule:evenodd;fill:url(#SVGID_18_);}
	.st32{fill:url(#SVGID_19_);}
	.st33{fill:#31C5F0;}
	.st34{fill:#FFAA2B;}
	.st35{fill:#3B3323;}
	.st36{opacity:0.302;}
	.st37{fill:#84E403;}
	.st38{fill:#2E372E;}
</style>
<g id="レイヤー_1" class="st0">
	<title>HTML5 Logo</title>
	<polygon class="st1" points="107.6,470.9 74.6,100.6 437.4,100.6 404.3,470.8 255.8,512 	"/>
	<polygon class="st2" points="256,480.5 376,447.2 404.3,130.9 256,130.9 	"/>
	<polygon class="st3" points="256,268.2 195.9,268.2 191.8,221.7 256,221.7 256,176.3 255.8,176.3 142.1,176.3 143.2,188.5 
		154.4,313.6 256,313.6 	"/>
	<polygon class="st3" points="256,386.2 255.8,386.2 205.2,372.5 202,336.3 177.4,336.3 156.4,336.3 162.8,407.6 255.8,433.5 
		256,433.4 	"/>
	<path class="st4" d="M108.4,0h23.1v22.8h21.1V0h23.1v69h-23.1V45.9h-21.1V69h-23.1L108.4,0L108.4,0z"/>
	<path class="st4" d="M206,22.9h-20.3V0h63.7v22.9h-20.3V69H206L206,22.9L206,22.9z"/>
	<path class="st4" d="M259.5,0h24.1l14.8,24.3L313.2,0h24.1v69h-23V34.8l-15.9,24.5H298l-15.9-24.5V69h-22.6V0z"/>
	<path class="st4" d="M348.7,0h23.1v46.2h32.5V69h-55.5V0z"/>
	<polygon class="st5" points="255.8,268.2 255.8,313.6 311.8,313.6 306.5,372.5 255.8,386.2 255.8,433.4 348.9,407.6 349.6,400 
		360.3,280.4 361.4,268.2 349.2,268.2 	"/>
	<polygon class="st5" points="255.8,176.3 255.8,204.5 255.8,221.6 255.8,221.7 365.4,221.7 365.4,221.7 365.5,221.7 366.4,211.5 
		368.5,188.5 369.6,176.3 	"/>
</g>
<g id="レイヤー_2" class="st0">
	<g id="Page_1" class="st4">
		<g id="Layer_1">
			<path id="Shape" class="st6" d="M357.9,21.6h-29.8l31,33.6v16h-63.9V52.5h31l-31-33.6v-16h62.7V21.6L357.9,21.6z M282.6,21.6
				h-29.8l31,33.6v16h-63.9V52.5h31l-31-33.6v-16h62.7V21.6L282.6,21.6z M208,22.4h-32.2v29.4H208v19.5h-55V2.8h55V22.4L208,22.4z"
				/>
			<path id="Shape_1_" class="st7" d="M109.1,469.2L76.4,102.5h359.2l-32.7,366.6l-147.1,40.8L109.1,469.2z"/>
			<path id="Shape_2_" class="st8" d="M256,478.7l118.9-33l28-313.3H256V478.7z"/>
			<g id="Group" transform="translate(55.000000, 142.000000)">
				<path id="Shape_3_" class="st9" d="M201,123.3h59.5l4.1-46H201v-45h0.2h112.6l-1.1,12.1l-11.1,123.9H201V123.3z"/>
				<path id="Shape_4_" class="st10" d="M201.3,240.1l-0.2,0.1L151,226.6l-3.2-35.9h-24.3h-20.8l6.3,70.6l92.1,25.6l0.2-0.1V240.1z"
					/>
				<path id="Shape_5_" class="st9" d="M256.7,166.4l-5.4,60.2l-50.2,13.5v46.8l92.2-25.6l0.7-7.6l7.8-87.4H256.7z"/>
				<path id="Shape_6_" class="st10" d="M201.2,32.3v27.9v16.9v0.1H92.7h-0.1l-0.9-10.1l-2-22.8l-1.1-12.1H201.2z"/>
				<path id="Shape_7_" class="st10" d="M201,123.3v27.9v16.9v0.1h-49.3h-0.1l-0.9-10.1l-2.1-22.8l-1.1-12.1H201z"/>
			</g>
		</g>
	</g>
</g>
<g id="レイヤー_3" class="st0">
	<g class="st4">
		<g>
			<defs>
				<rect id="SVGID_1_" x="-1.3" y="39.1" width="522.1" height="391.3"/>
			</defs>
			<clipPath id="SVGID_2_">
				<use xlink:href="#SVGID_1_"  style="overflow:visible;"/>
			</clipPath>
			<path class="st11" d="M367.8,334.8c-1.7-1.2-1.4-5,4.1-16.9c2.1-4.7,7-12.5,15.5-20c1,3.1,1.6,6,1.6,8.8
				C388.8,325.1,375.7,332,367.8,334.8L367.8,334.8z M298.1,350.7c-2.2,1.2-4.3,1.9-5.2,1.3c-0.7-0.4,0.9-1.9,0.9-1.9
				s11.3-12.2,15.8-17.7c2.6-3.2,5.6-7.1,8.9-11.3c0,0.4,0,0.9,0,1.3C318.4,336.9,304.3,346.8,298.1,350.7L298.1,350.7z
				 M207.5,307.5c-5.2,12.8-16.2,45.4-22.9,43.7c-5.7-1.5-9.2-26.3-1.1-50.8c4.1-12.3,12.7-27,17.8-32.7c8.2-9.2,17.2-12.2,19.4-8.5
				C223.6,264,210.8,299.5,207.5,307.5L207.5,307.5z M98,382c-15,16.4-36.1,22.6-45.1,17.4c-9.7-5.6-5.9-29.8,12.6-47.2
				c11.2-10.6,25.8-20.4,35.4-26.4c2.2-1.3,5.4-3.3,9.3-5.6c0.6-0.4,1-0.6,1-0.6l0,0c0.8-0.5,1.5-0.9,2.3-1.4
				C120.3,343,113.8,364.8,98,382L98,382z M448,264c-18.2,0.1-34.1,4.5-47.3,11c-4.8-9.7-9.7-18.2-10.6-24.5
				c-1-7.4-2.1-11.8-0.9-20.6c1.2-8.8,6.3-21.3,6.2-22.2c-0.1-0.9-1.1-5.4-11.7-5.5c-10.5-0.1-19.5,2-20.6,4.8
				c-1.1,2.8-3.1,9-4.3,15.6c-1.8,9.5-21,43.6-31.9,61.4c-3.6-6.9-6.6-13.1-7.2-17.9c-1-7.4-2.1-11.8-0.9-20.6
				c1.2-8.8,6.3-21.3,6.2-22.2c-0.1-0.9-1.1-5.4-11.7-5.5c-10.5-0.1-19.5,2-20.6,4.8c-1.1,2.8-2.2,9.3-4.3,15.6
				c-2.2,6.3-27.6,63.1-34.3,77.8c-3.4,7.5-6.4,13.5-8.4,17.6c0,0,0,0,0,0s-0.1,0.3-0.4,0.7c-1.8,3.5-2.9,5.4-2.9,5.4s0,0,0,0.1
				c-1.4,2.6-2.9,5-3.7,5c-0.5,0-1.6-6.8,0.2-16.2c3.8-19.7,12.9-50.4,12.8-51.5c0-0.5,1.7-5.9-5.9-8.7c-7.4-2.7-10.1,1.8-10.7,1.8
				c-0.7,0-1.1,1.6-1.1,1.6s8.3-34.5-15.8-34.5c-15,0-35.9,16.5-46.1,31.4c-6.5,3.5-20.3,11.1-35.1,19.2c-5.6,3.1-11.4,6.3-16.9,9.3
				c-0.4-0.4-0.7-0.8-1.1-1.2c-29.2-31.1-83.1-53.1-80.8-95c0.8-15.2,6.1-55.3,103.6-103.8c79.9-39.8,143.8-28.8,154.9-4.6
				c15.8,34.7-34.2,99.1-117.1,108.4c-31.6,3.5-48.2-8.7-52.4-13.3c-4.4-4.8-5-5-6.6-4.1c-2.6,1.5-1,5.7,0,8.2
				c2.5,6.4,12.6,17.9,30,23.6c15.2,5,52.3,7.7,97.2-9.6c50.3-19.4,89.5-73.5,78-118.7c-11.7-46-87.9-61.1-160.1-35.5
				C122.5,66.8,76,90.7,42.6,122C2.9,159.1-3.4,191.5-0.8,205c9.3,48,75.5,79.3,102,102.5c-1.3,0.7-2.5,1.4-3.7,2
				c-13.3,6.6-63.7,33-76.4,60.9c-14.3,31.6,2.3,54.4,13.3,57.4c34,9.5,69-7.6,87.7-35.6c18.8-28,16.5-64.4,7.9-81.1
				c-0.1-0.2-0.2-0.4-0.3-0.6c3.4-2,6.9-4.1,10.4-6.1c6.8-4,13.4-7.7,19.2-10.8c-3.2,8.8-5.6,19.4-6.8,34.7
				c-1.4,18,5.9,41.2,15.6,50.3c4.2,4,9.3,4.1,12.6,4.1c11.2,0,16.3-9.3,22-20.4c6.9-13.5,13-29.3,13-29.3s-7.7,42.5,13.3,42.5
				c7.6,0,15.3-9.9,18.7-15c0,0.1,0,0.1,0,0.1s0.2-0.3,0.6-1c0.8-1.2,1.2-2,1.2-2s0-0.1,0-0.2c3.1-5.3,9.9-17.5,20.1-37.5
				c13.2-25.9,25.8-58.3,25.8-58.3s1.2,7.9,5,21c2.3,7.7,7.1,16.2,10.9,24.4c-3.1,4.2-4.9,6.7-4.9,6.7s0,0,0.1,0.1
				c-2.4,3.2-5.2,6.7-8.1,10.2c-10.4,12.4-22.8,26.6-24.5,30.7c-2,4.8-1.5,8.4,2.3,11.2c2.8,2.1,7.7,2.4,12.8,2.1
				c9.4-0.6,15.9-2.9,19.2-4.4c5.1-1.8,11-4.6,16.5-8.7c10.2-7.5,16.4-18.3,15.8-32.5c-0.3-7.8-2.8-15.6-6-23c0.9-1.3,1.9-2.7,2.8-4
				c16.1-23.5,28.6-49.4,28.6-49.4s1.2,7.9,5,21c2,6.6,5.8,13.9,9.3,21c-15.1,12.3-24.5,26.6-27.8,36c-6,17.3-1.3,25.2,7.5,27
				c4,0.8,9.7-1,13.9-2.8c5.3-1.8,11.7-4.7,17.6-9.1c10.2-7.5,20-18,19.4-32.3c-0.3-6.5-2-12.9-4.4-19.1c12.8-5.3,29.5-8.3,50.6-5.8
				c45.4,5.3,54.3,33.7,52.6,45.5c-1.7,11.9-11.2,18.4-14.4,20.4c-3.2,2-4.2,2.7-3.9,4.1c0.4,2.1,1.9,2,4.6,1.6
				c3.7-0.6,23.8-9.7,24.7-31.6C521.8,294.3,495.1,263.8,448,264L448,264z"/>
		</g>
	</g>
</g>
<g id="レイヤー_4" class="st0">
	<g class="st4">
		<path class="st12" d="M256,52.6c113.5,0,205.4,92,205.4,205.4s-92,205.4-205.4,205.4s-205.4-92-205.4-205.4S142.5,52.6,256,52.6
			L256,52.6L256,52.6z"/>
		<path class="st9" d="M215.2,326.5c3,11.1,2.7,21.4-0.4,30.7c-0.3,1-0.7,2.1-1.1,3.1c-0.4,1-0.9,2-1.3,3c-2.4,4.9-5.6,9.6-9.5,13.8
			c-11.9,13-28.6,17.9-35.8,13.8c-7.7-4.5-3.9-22.8,10-37.5c14.9-15.7,36.3-25.9,36.3-25.9l0-0.1
			C213.9,327.2,214.5,326.8,215.2,326.5L215.2,326.5z M384.9,140.6c-9.3-36.5-69.8-48.5-127.1-28.1c-34.1,12.1-71,31.1-97.5,55.9
			c-31.5,29.5-36.6,55.2-34.5,65.9c7.3,37.9,59.2,62.6,80.5,81v0.1c-6.3,3.1-52.3,26.4-63.1,50.2c-11.4,25.1,1.8,43.1,10.5,45.6
			c27,7.5,54.7-6,69.6-28.2c14.4-21.4,13.2-49.1,6.9-62.9c8.6-2.3,18.7-3.3,31.4-1.8c36,4.2,43.1,26.7,41.8,36.1
			c-1.4,9.4-8.9,14.6-11.4,16.2c-2.5,1.6-3.3,2.1-3.1,3.3c0.3,1.7,1.5,1.6,3.6,1.3c3-0.5,18.9-7.7,19.6-25
			c0.9-22.1-20.3-46.8-57.7-46.1c-15.4,0.3-25.1,1.7-32.1,4.3c-0.5-0.6-1-1.2-1.6-1.8c-23.2-24.7-66-42.2-64.1-75.4
			c0.7-12.1,4.9-43.9,82.2-82.4c63.4-31.6,114.1-22.9,122.9-3.6c12.5,27.5-27.1,78.7-93,86.1c-25.1,2.8-38.3-6.9-41.6-10.5
			c-3.5-3.8-4-4-5.3-3.3c-2.1,1.2-0.8,4.5,0,6.5c2,5.1,10,14.2,23.8,18.7c12.1,4,41.5,6.2,77.2-7.6
			C362.9,219.3,394,176.4,384.9,140.6L384.9,140.6z"/>
	</g>
</g>
<g id="レイヤー_5" class="st0">
	<g class="st4">
		<path class="st13" d="M260,390.7c-2.6-0.6-5.1-1.4-7.7-2.2c-0.6-0.2-1.3-0.4-1.9-0.6c-2.5-0.8-5-1.6-7.4-2.4
			c-0.3-0.1-0.7-0.2-1-0.4c-2.2-0.8-4.4-1.6-6.5-2.4c-0.6-0.2-1.2-0.5-1.8-0.7c-2.4-0.9-4.7-1.9-7.1-2.9c-0.5-0.2-0.9-0.4-1.4-0.6
			c-2-0.9-4-1.8-5.9-2.8c-0.6-0.3-1.1-0.5-1.7-0.8c-1.6-0.7-3.1-1.6-4.6-2.3c-1-0.5-2.1-1-3.1-1.6c-1.9-1-3.7-2-5.5-3.1
			c-0.6-0.3-1.2-0.7-1.9-1c-2.4-1.4-4.8-2.9-7.2-4.4c-0.6-0.4-1.3-0.9-1.9-1.3c-1.7-1.1-3.4-2.2-5.1-3.4c-0.6-0.4-1.1-0.8-1.6-1.2
			c-1.6-1.2-3.2-2.3-4.8-3.5c-0.7-0.5-1.4-1.1-2.1-1.6c-1.5-1.1-2.9-2.2-4.4-3.4c-0.6-0.5-1.3-1-2-1.6c-1.8-1.5-3.6-3-5.4-4.6
			c-0.2-0.2-0.4-0.3-0.6-0.5c-1.9-1.7-3.8-3.4-5.7-5.2c-0.5-0.5-1.1-1-1.6-1.5c-1.4-1.3-2.8-2.7-4.1-4c-0.5-0.5-1.1-1.1-1.6-1.6
			c-1.7-1.8-3.4-3.5-5-5.3c-0.1-0.1-0.2-0.2-0.2-0.3c-1.7-1.9-3.4-3.9-5.1-5.8c-0.5-0.5-0.9-1-1.3-1.6c-1.2-1.5-2.5-3-3.7-4.5
			c-0.5-0.5-0.9-1.1-1.3-1.7c-1.4-1.9-2.9-3.7-4.2-5.6C95,252,81.2,180,111.8,120.8l-27.1,34.4c-34.8,50-30.4,115-3.9,168
			c0.6,1.3,1.3,2.5,2,3.8c0.4,0.8,0.8,1.6,1.2,2.4c0.2,0.5,0.5,0.9,0.8,1.4c0.5,0.9,0.9,1.7,1.4,2.5c0.8,1.4,1.7,2.9,2.5,4.3
			c0.5,0.8,1,1.6,1.4,2.4c1,1.6,1.9,3.1,2.9,4.6c0.4,0.6,0.8,1.3,1.3,1.9c1.4,2.1,2.8,4.1,4.3,6.2c0,0.1,0.1,0.1,0.1,0.2
			c0.2,0.3,0.5,0.6,0.7,1c1.3,1.7,2.6,3.5,3.9,5.2c0.5,0.6,1,1.3,1.5,1.9c1.2,1.5,2.4,2.9,3.6,4.4c0.5,0.5,0.9,1.1,1.4,1.6
			c1.6,1.9,3.3,3.8,5,5.7c0,0,0.1,0.1,0.1,0.1c0.1,0.1,0.1,0.1,0.2,0.2c1.7,1.8,3.4,3.6,5.1,5.4c0.5,0.6,1.1,1.1,1.6,1.6
			c1.3,1.3,2.7,2.7,4.1,4c0.6,0.5,1.1,1.1,1.7,1.6c1.8,1.7,3.7,3.4,5.6,5.1c0,0,0.1,0.1,0.1,0.1c0.3,0.3,0.7,0.6,1,0.8
			c1.7,1.4,3.3,2.9,5.1,4.3c0.7,0.6,1.4,1.1,2.1,1.7c1.4,1.1,2.8,2.2,4.2,3.3c0.7,0.6,1.5,1.2,2.2,1.7c1.6,1.2,3.1,2.3,4.7,3.4
			c0.6,0.4,1.1,0.8,1.7,1.2c0.2,0.1,0.3,0.2,0.5,0.3c1.5,1,3.1,2,4.6,3c0.7,0.4,1.3,0.9,2,1.3c2.4,1.5,4.8,3,7.2,4.4
			c0.7,0.4,1.3,0.7,2,1.1c1.8,1,3.6,2,5.4,3c1,0.5,2,1,3,1.5c1.3,0.7,2.6,1.4,3.9,2c0.3,0.2,0.6,0.3,0.9,0.4c0.5,0.2,1,0.5,1.6,0.8
			c2,1,4.1,1.9,6.1,2.8c0.4,0.2,0.9,0.4,1.3,0.6c2.4,1,4.7,2,7.1,3c0.6,0.2,1.2,0.5,1.7,0.7c2.2,0.9,4.5,1.7,6.7,2.5
			c0.3,0.1,0.6,0.2,0.9,0.3c2.5,0.9,5,1.7,7.5,2.5c0.6,0.2,1.2,0.4,1.8,0.5c2.6,0.8,5.1,1.7,7.8,2.2C394,470.6,442.8,339,442.8,339
			C401.8,392.4,329.1,406.5,260,390.7L260,390.7z M199.5,254.5c3.8,5.4,7.9,11.8,12.9,16.2c1.8,2,3.7,3.9,5.6,5.9
			c0.5,0.5,1,1,1.5,1.5c1.9,1.8,3.8,3.6,5.8,5.4c0.1,0.1,0.2,0.1,0.2,0.2c0,0,0,0,0.1,0.1c2.2,1.9,4.4,3.8,6.7,5.6
			c0.5,0.4,1,0.8,1.5,1.2c2.3,1.8,4.6,3.5,7,5.1c0.1,0.1,0.1,0.1,0.2,0.2c1.1,0.7,2.1,1.4,3.2,2.1c0.5,0.3,1,0.7,1.5,1
			c1.7,1.1,3.5,2.2,5.2,3.2c0.2,0.2,0.5,0.3,0.7,0.4c1.5,0.9,3.1,1.7,4.6,2.6c0.5,0.3,1.1,0.6,1.6,0.9c1.1,0.6,2.1,1.1,3.2,1.7
			c0.2,0.1,0.3,0.2,0.5,0.2c2.2,1.1,4.4,2.1,6.7,3.1c0.5,0.2,1,0.4,1.5,0.6c1.8,0.8,3.7,1.5,5.5,2.2c0.8,0.3,1.6,0.6,2.4,0.9
			c1.7,0.6,3.4,1.2,5.1,1.8c0.8,0.2,1.5,0.5,2.3,0.7c2.4,0.7,4.8,1.7,7.3,2.1c129.8,21.5,159.7-78.4,159.7-78.4
			c-27,38.9-79.3,57.4-135.1,43c-2.5-0.7-4.9-1.4-7.4-2.1c-0.7-0.2-1.5-0.5-2.2-0.7c-1.7-0.6-3.4-1.2-5.1-1.8
			c-0.8-0.3-1.6-0.6-2.3-0.9c-1.9-0.7-3.7-1.5-5.5-2.2c-0.5-0.2-1-0.4-1.5-0.6c-2.3-1-4.5-2-6.8-3.1c-1.2-0.6-2.3-1.2-3.4-1.7
			c-0.6-0.3-1.3-0.7-2-1c-1.4-0.8-2.9-1.6-4.3-2.4c-0.3-0.2-0.7-0.4-1-0.6c-1.8-1-3.5-2.1-5.2-3.2c-0.5-0.3-1-0.7-1.6-1
			c-1.1-0.7-2.3-1.5-3.4-2.2c-2.4-1.7-4.7-3.4-7-5.1c-0.5-0.4-1.1-0.8-1.6-1.2c-24.4-19.3-43.8-45.6-53-75.5
			c-9.7-31-7.6-65.8,9.2-94l-20.5,29c-25.1,36.2-23.8,84.6-4.2,122.8C191.6,242.4,195.3,248.6,199.5,254.5L199.5,254.5z
			 M336.3,209.8c1.1,0.4,2.1,0.7,3.2,1.1c0.5,0.1,0.9,0.3,1.4,0.5c1.5,0.5,3.1,1,4.6,1.3c71.7,13.8,91.1-36.8,96.3-44.2
			c-17,24.5-45.6,30.4-80.7,21.9c-2.8-0.7-5.8-1.7-8.5-2.6c-3.4-1.2-6.8-2.6-10.1-4.2c-6.2-3-12.2-6.6-17.7-10.8
			c-31.4-23.8-50.9-69.3-30.4-106.3l-11.1,15.3c-14.8,21.8-16.3,48.9-6,73C288.1,180.2,310.3,200.2,336.3,209.8L336.3,209.8z"/>
	</g>
</g>
<g id="レイヤー_6" class="st0">
	<linearGradient id="SVGID_3_" gradientUnits="userSpaceOnUse" x1="384.6443" y1="461.2374" x2="309.2029" y2="328.0418">
		<stop  offset="0" style="stop-color:#F1926B"/>
		<stop  offset="0" style="stop-color:#F1926B"/>
		<stop  offset="0.41" style="stop-color:#DB4C34"/>
		<stop  offset="0.99" style="stop-color:#A72126"/>
		<stop  offset="1" style="stop-color:#A72126"/>
	</linearGradient>
	<polygon class="st14" points="143.4,428.8 407.7,410.9 428.1,144.3 347.5,307.6 	"/>
	<linearGradient id="SVGID_4_" gradientUnits="userSpaceOnUse" x1="422.2273" y1="349.3598" x2="325.0038" y2="284.117">
		<stop  offset="0" style="stop-color:#9A3729"/>
		<stop  offset="0" style="stop-color:#9A3729"/>
		<stop  offset="0.99" style="stop-color:#A2372A"/>
		<stop  offset="1" style="stop-color:#A2372A"/>
	</linearGradient>
	<polygon class="st15" points="323.5,335.6 408.1,410.7 385.4,253.9 	"/>
	<linearGradient id="SVGID_5_" gradientUnits="userSpaceOnUse" x1="344.4393" y1="465.2779" x2="247.2158" y2="400.0351">
		<stop  offset="0" style="stop-color:#9A3729"/>
		<stop  offset="0" style="stop-color:#9A3729"/>
		<stop  offset="0.99" style="stop-color:#A2372A"/>
		<stop  offset="1" style="stop-color:#A2372A"/>
	</linearGradient>
	<polygon class="st16" points="144.2,428.5 408.4,410.7 242,397.6 	"/>
	<linearGradient id="SVGID_6_" gradientUnits="userSpaceOnUse" x1="140.3184" y1="302.1363" x2="155.3904" y2="400.0891">
		<stop  offset="0" style="stop-color:#FFFFFF"/>
		<stop  offset="0" style="stop-color:#FFFFFF"/>
		<stop  offset="0.23" style="stop-color:#E38E69"/>
		<stop  offset="0.46" style="stop-color:#D95D36"/>
		<stop  offset="0.99" style="stop-color:#A60003"/>
		<stop  offset="1" style="stop-color:#A60003"/>
	</linearGradient>
	<polygon class="st17" points="94.6,311.8 144.5,428.5 186.1,292.3 	"/>
	<linearGradient id="SVGID_7_" gradientUnits="userSpaceOnUse" x1="243.9806" y1="210.6666" x2="249.534" y2="310.6354">
		<stop  offset="0" style="stop-color:#FFFFFF"/>
		<stop  offset="0" style="stop-color:#FFFFFF"/>
		<stop  offset="0.23" style="stop-color:#E18D65"/>
		<stop  offset="0.56" style="stop-color:#C23D28"/>
		<stop  offset="0.99" style="stop-color:#B22B23"/>
		<stop  offset="1" style="stop-color:#B22B23"/>
	</linearGradient>
	<polygon class="st18" points="175.8,288.8 323.5,336 285.3,186.2 	"/>
	<linearGradient id="SVGID_8_" gradientUnits="userSpaceOnUse" x1="335.9747" y1="118.2842" x2="352.5989" y2="189.9265">
		<stop  offset="0" style="stop-color:#FFFFFF"/>
		<stop  offset="0" style="stop-color:#FFFFFF"/>
		<stop  offset="0.18" style="stop-color:#E08159"/>
		<stop  offset="0.4" style="stop-color:#C94729"/>
		<stop  offset="0.99" style="stop-color:#B22B23"/>
		<stop  offset="1" style="stop-color:#B22B23"/>
	</linearGradient>
	<polygon class="st19" points="287.1,196.9 419.4,188.3 315.9,103.7 	"/>
	<linearGradient id="SVGID_9_" gradientUnits="userSpaceOnUse" x1="285.2085" y1="93.0495" x2="356.8489" y2="57.2292">
		<stop  offset="0" style="stop-color:#FFFFFF"/>
		<stop  offset="0" style="stop-color:#FFFFFF"/>
		<stop  offset="0.54" style="stop-color:#C8422A"/>
		<stop  offset="0.99" style="stop-color:#C12121"/>
		<stop  offset="1" style="stop-color:#C12121"/>
	</linearGradient>
	<polygon class="st20" points="271.7,73.2 371,73.6 310.1,107.2 	"/>
	<linearGradient id="SVGID_10_" gradientUnits="userSpaceOnUse" x1="77.5243" y1="277.1651" x2="83.4207" y2="336.2006">
		<stop  offset="0" style="stop-color:#FFFFFF"/>
		<stop  offset="0" style="stop-color:#FFFFFF"/>
		<stop  offset="0.31" style="stop-color:#D9613A"/>
		<stop  offset="0.99" style="stop-color:#C23D25"/>
		<stop  offset="1" style="stop-color:#C23D25"/>
	</linearGradient>
	<polygon class="st21" points="75.4,255.6 70.5,357.5 96,311 	"/>
	<path class="st22" d="M74,253.9l20.8,58.9l90.2-20.2l103-95.7l29.1-92.3l-45.8-32.3l-77.8,29.1c-24.5,22.8-72.1,67.9-73.8,68.7
		C117.9,170.9,88.2,227.1,74,253.9z"/>
	<linearGradient id="SVGID_11_" gradientUnits="userSpaceOnUse" x1="36.9794" y1="352.1615" x2="314.1528" y2="67.1498">
		<stop  offset="0" style="stop-color:#BD0012"/>
		<stop  offset="0" style="stop-color:#BD0012"/>
		<stop  offset="7.000000e-02" style="stop-color:#FFFFFF"/>
		<stop  offset="0.17" style="stop-color:#FFFFFF"/>
		<stop  offset="0.27" style="stop-color:#C95233"/>
		<stop  offset="0.33" style="stop-color:#972E29"/>
		<stop  offset="0.46" style="stop-color:#AF3B24"/>
		<stop  offset="0.72" style="stop-color:#B93521"/>
		<stop  offset="0.99" style="stop-color:#DC4719"/>
		<stop  offset="1" style="stop-color:#DC4719"/>
	</linearGradient>
	<path class="st23" d="M146.9,148.1C200,95.4,268.4,64.3,294.7,90.8c26.3,26.5-1.6,90.9-54.7,143.6s-120.7,85.5-147,59
		C66.7,266.9,93.7,200.8,146.9,148.1z"/>
	<linearGradient id="SVGID_12_" gradientUnits="userSpaceOnUse" x1="249.2939" y1="380.9013" x2="165.8137" y2="360.2977">
		<stop  offset="0" style="stop-color:#9E2D28"/>
		<stop  offset="0" style="stop-color:#9E2D28"/>
		<stop  offset="0.54" style="stop-color:#A72C26"/>
		<stop  offset="0.99" style="stop-color:#B22A2D"/>
		<stop  offset="1" style="stop-color:#B22A2D"/>
	</linearGradient>
	<path class="st24" d="M144.5,428.5l41.3-136.7l137,44C273.2,382.3,218.1,421.5,144.5,428.5z"/>
	<linearGradient id="SVGID_13_" gradientUnits="userSpaceOnUse" x1="392.6842" y1="280.6996" x2="318.5174" y2="214.2259">
		<stop  offset="0" style="stop-color:#94362E"/>
		<stop  offset="0" style="stop-color:#94362E"/>
		<stop  offset="0.99" style="stop-color:#AB2B25"/>
		<stop  offset="1" style="stop-color:#AB2B25"/>
	</linearGradient>
	<path class="st25" d="M288.1,196.6l35.2,139.3c41.4-43.5,78.5-90.3,96.7-148.2L288.1,196.6z"/>
	<linearGradient id="SVGID_14_" gradientUnits="userSpaceOnUse" x1="419.9328" y1="158.7352" x2="382.9881" y2="119.2386">
		<stop  offset="0" style="stop-color:#90382E"/>
		<stop  offset="0" style="stop-color:#90382E"/>
		<stop  offset="0.99" style="stop-color:#AB362B"/>
		<stop  offset="1" style="stop-color:#AB362B"/>
	</linearGradient>
	<path class="st26" d="M419.6,188.4c14.1-42.5,17.3-103.4-49.1-114.8l-54.5,30.1L419.6,188.4z"/>
	<path class="st27" d="M70.5,356.9c1.9,70.1,52.5,71.2,74.1,71.8L94.8,312.5L70.5,356.9z"/>
	<radialGradient id="SVGID_15_" cx="330.0655" cy="215.5028" r="90.8906" gradientUnits="userSpaceOnUse">
		<stop  offset="0" style="stop-color:#B22B23"/>
		<stop  offset="0" style="stop-color:#B22B23"/>
		<stop  offset="0.99" style="stop-color:#94312B"/>
		<stop  offset="1" style="stop-color:#94312B"/>
	</radialGradient>
	<path class="st28" d="M288.3,196.8c31.8,19.5,95.9,58.8,97.2,59.5c2,1.1,27.6-43.2,33.4-68.2L288.3,196.8z"/>
	<radialGradient id="SVGID_16_" cx="204.1975" cy="335.2705" r="120.827" gradientUnits="userSpaceOnUse">
		<stop  offset="0" style="stop-color:#AF2B24"/>
		<stop  offset="0" style="stop-color:#AF2B24"/>
		<stop  offset="0.99" style="stop-color:#96322C"/>
		<stop  offset="1" style="stop-color:#96322C"/>
	</radialGradient>
	<path class="st29" d="M185.7,291.8l55.2,106.4c32.6-17.7,58.2-39.2,81.5-62.3L185.7,291.8z"/>
	<linearGradient id="SVGID_17_" gradientUnits="userSpaceOnUse" x1="118.6152" y1="428.3795" x2="88.5071" y2="326.2323">
		<stop  offset="0" style="stop-color:#9F4530"/>
		<stop  offset="0" style="stop-color:#9F4530"/>
		<stop  offset="0.43" style="stop-color:#AB312B"/>
		<stop  offset="0.99" style="stop-color:#B9302A"/>
		<stop  offset="1" style="stop-color:#B9302A"/>
	</linearGradient>
	<path class="st30" d="M94.6,312.6l-7.8,93.1c14.7,20.1,35,21.9,56.3,20.3C127.7,387.7,96.9,311,94.6,312.6z"/>
	<linearGradient id="SVGID_18_" gradientUnits="userSpaceOnUse" x1="349.5807" y1="89.9028" x2="417.0808" y2="119.6985">
		<stop  offset="0" style="stop-color:#B93021"/>
		<stop  offset="0" style="stop-color:#B93021"/>
		<stop  offset="0.44" style="stop-color:#A2322A"/>
		<stop  offset="0.99" style="stop-color:#904131"/>
		<stop  offset="1" style="stop-color:#904131"/>
	</linearGradient>
	<path class="st31" d="M315.8,104l109.6,15.4c-5.8-24.8-23.8-40.8-54.4-45.8L315.8,104z"/>
</g>
<g id="レイヤー_7" class="st0">
	<g class="st4">
		
			<radialGradient id="SVGID_19_" cx="-183.5839" cy="182.9206" r="0.3563" gradientTransform="matrix(826.1105 0 0 -818.0499 151850.6094 149790.0156)" gradientUnits="userSpaceOnUse">
			<stop  offset="0" style="stop-color:#34364E;stop-opacity:0.98"/>
			<stop  offset="1" style="stop-color:#0C0824"/>
		</radialGradient>
		<path class="st32" d="M62.3,65.4h387.3v385.3H62.3V65.4z"/>
		<path class="st33" d="M62.3,65.4h387.3v385.3H62.3V65.4z M44.7,468.7h422.5V47.4H44.7V468.7z M329.6,220.2
			c-13.9,0-18.7,7.2-18.7,13.1c0,6.5,3.2,11,21.8,20.9c27.6,13.7,36.3,26.8,36.3,46.1c0,28.8-21.5,44.3-50.5,44.3
			c-15.3,0-28.5-3.2-36.1-7.7c-1.2-0.5-1.4-1.4-1.4-2.9v-26.5c0-1.8,0.9-2.3,2.1-1.4c11.1,7.4,23.8,10.6,35.4,10.6
			c13.9,0,19.7-5.9,19.7-14c0-6.5-4-12.2-21.8-21.6c-25-12.2-35.4-24.7-35.4-45.4c0-23.2,17.8-42.5,48.6-42.5
			c15.1,0,25.7,2.3,31.5,5c1.4,0.9,1.8,2.3,1.8,3.6v24.7c0,1.4-0.9,2.3-2.6,1.8C352.5,223.3,341,220.2,329.6,220.2L329.6,220.2z
			 M178.2,241.7c4,0.4,7.2,0.4,14.3,0.4c20.6,0,40-7.4,40-36c0-22.9-13.9-34.4-37.3-34.4c-7,0-13.7,0.4-16.9,0.5V241.7L178.2,241.7z
			 M146.8,146.1c0-1.3,2.5-2.2,3.9-2.2c11.3-0.5,28-0.9,45.4-0.9c48.8,0,67.8,27.4,67.8,62.3c0,45.7-32.4,65.4-72.2,65.4
			c-6.7,0-9-0.4-13.7-0.4v69.1c0,1.4-0.5,2.2-2.1,2.2H149c-1.4,0-2.1-0.5-2.1-2.2L146.8,146.1L146.8,146.1z"/>
	</g>
</g>
<g id="レイヤー_8" class="st0">
	<g class="st4">
		<g id="Frame_2_">
			<g>
				<rect x="44.7" y="43.8" class="st34" width="422.5" height="424.9"/>
			</g>
		</g>
		<g id="Background_2_">
			<g>
				<rect x="76.9" y="77.9" class="st35" width="357.3" height="356.7"/>
			</g>
		</g>
		<g id="Shadow2_2_" class="st36">
			<g>
				<path d="M347,162.7c0.8,0.6-23.7,27.1-23.7,27.1l31.7,25.8l-29.1,22.3L253,165.4l-34.7,8.7l-22,72.6l-39.8,98.8l121.9,89.2
					h155.8V235.3C434.2,235.3,346.2,162.2,347,162.7z"/>
			</g>
		</g>
		<g id="Shadow_1_" class="st36">
			<g>
				<rect x="76.9" y="77.9" width="357.3" height="12.2"/>
			</g>
		</g>
		<g id="Ai_1_">
			<g>
				<path class="st34" d="M204.8,294.4l-15,51h-32.9l55.9-180h40.6l56.6,180h-34.1l-15.8-51H204.8z M254.7,269.5L241,225.2
					c-3.4-10.9-6.2-23.2-8.8-33.7h-0.5c-2.6,10.4-5.2,23-8.3,33.7L210,269.5H254.7z"/>
				<path class="st34" d="M356.6,179c0,9.9-7,17.6-18.1,17.6c-10.6,0-17.6-7.7-17.6-17.6c0-10.1,7.2-17.9,17.8-17.9
					C349.6,161.1,356.4,168.8,356.6,179z M322.7,345.4V215.3h32.1v130.1L322.7,345.4L322.7,345.4z"/>
			</g>
		</g>
	</g>
</g>
<g id="レイヤー_9">
	<g>
		<g id="Frame_1_">
			<g>
				<rect x="44.7" y="43.8" class="st37" width="422.5" height="424.9"/>
			</g>
		</g>
		<g id="Background_1_">
			<g>
				<rect x="76.9" y="77.9" class="st38" width="357.3" height="356.7"/>
			</g>
		</g>
		<g id="Shadow2_1_" class="st36">
			<g>
				<polygon points="402.1,216.1 372.4,250.2 332.6,216.1 309.8,255.4 269.2,216.2 260.7,216.1 198.8,172.4 132.8,163.6 
					109.1,345.5 226.8,434.6 434.2,434.6 434.2,244.9 				"/>
			</g>
		</g>
		<g id="Shadow_2_" class="st36">
			<g>
				<rect x="76.9" y="77.9" width="357.3" height="12.2"/>
			</g>
		</g>
		<g id="Dw_1_">
			<g>
				<path class="st37" d="M108.9,167.6c12.1-2.4,27.6-3.7,43.9-3.7c28.2,0,47.7,6.9,61.6,20.8c14.6,14.2,23.5,35.5,23.5,66.2
					c0,32-9.2,56.1-23.5,71.6c-15,16.3-39,24.6-68.4,24.6c-16.1,0-28.2-1.1-37.2-2.4C108.9,344.6,108.9,167.6,108.9,167.6z
					 M136.5,320c3.8,0.8,9.6,0.8,15.2,0.8c35.9,0.3,57.1-23.2,57.1-68.9c0.2-39.8-19-62.5-53.6-62.5c-8.7,0-15,0.8-18.8,1.9
					C136.5,191.3,136.5,320,136.5,320z"/>
				<path class="st37" d="M268.5,215.1l11.4,59c2.5,13.9,4.9,28,6.9,42.2h0.4c2.2-14.2,5.8-28.6,9-41.9l14.1-59.3h22.4l13.7,57.7
					c3.4,15.2,6.3,29.4,8.7,43.5h0.4c1.8-14.2,4.3-28.3,7.2-43.5l12.1-57.7h27.1l-34.3,130h-25.5l-13-52.9
					c-3.4-13.6-5.8-25.9-8.3-41.7h-0.4c-2.2,16-5.2,28.8-8.3,41.7l-13.9,52.9h-25.8l-32.3-130L268.5,215.1L268.5,215.1z"/>
			</g>
		</g>
	</g>
</g>
</svg>
