<?xml version="1.0" encoding="utf-8"?>
<!-- Generator: Adobe Illustrator 20.0.0, SVG Export Plug-In . SVG Version: 6.00 Build 0)  -->
<svg version="1.1" id="レイヤー_1" xmlns="http://www.w3.org/2000/svg" xmlns:xlink="http://www.w3.org/1999/xlink" x="0px"
	 y="0px" viewBox="0 0 512 512" style="enable-background:new 0 0 512 512;" xml:space="preserve">
<style type="text/css">
	.st0{fill:#84E403;}
	.st1{fill:#2E372E;}
	.st2{opacity:0.302;}
</style>
<g id="レイヤー_9">
	<g>
		<g id="Frame_1_">
			<g>
				<rect x="44.7" y="43.8" class="st0" width="422.5" height="424.9"/>
			</g>
		</g>
		<g id="Background_1_">
			<g>
				<rect x="76.9" y="77.9" class="st1" width="357.3" height="356.7"/>
			</g>
		</g>
		<g id="Shadow2_1_" class="st2">
			<g>
				<polygon points="402.1,216.1 372.4,250.2 332.6,216.1 309.8,255.4 269.2,216.2 260.7,216.1 198.8,172.4 132.8,163.6 
					109.1,345.5 226.8,434.6 434.2,434.6 434.2,244.9 				"/>
			</g>
		</g>
		<g id="Shadow_2_" class="st2">
			<g>
				<rect x="76.9" y="77.9" width="357.3" height="12.2"/>
			</g>
		</g>
		<g id="Dw_1_">
			<g>
				<path class="st0" d="M108.9,167.6c12.1-2.4,27.6-3.7,43.9-3.7c28.2,0,47.7,6.9,61.6,20.8c14.6,14.2,23.5,35.5,23.5,66.2
					c0,32-9.2,56.1-23.5,71.6c-15,16.3-39,24.6-68.4,24.6c-16.1,0-28.2-1.1-37.2-2.4C108.9,344.6,108.9,167.6,108.9,167.6z
					 M136.5,320c3.8,0.8,9.6,0.8,15.2,0.8c35.9,0.3,57.1-23.2,57.1-68.9c0.2-39.8-19-62.5-53.6-62.5c-8.7,0-15,0.8-18.8,1.9
					C136.5,191.3,136.5,320,136.5,320z"/>
				<path class="st0" d="M268.5,215.1l11.4,59c2.5,13.9,4.9,28,6.9,42.2h0.4c2.2-14.2,5.8-28.6,9-41.9l14.1-59.3h22.4l13.7,57.7
					c3.4,15.2,6.3,29.4,8.7,43.5h0.4c1.8-14.2,4.3-28.3,7.2-43.5l12.1-57.7h27.1l-34.3,130h-25.5l-13-52.9
					c-3.4-13.6-5.8-25.9-8.3-41.7h-0.4c-2.2,16-5.2,28.8-8.3,41.7l-13.9,52.9h-25.8l-32.3-130L268.5,215.1L268.5,215.1z"/>
			</g>
		</g>
	</g>
</g>
</svg>
