<?xml version="1.0" encoding="utf-8"?>
<!-- Generator: Adobe Illustrator 20.0.0, SVG Export Plug-In . SVG Version: 6.00 Build 0)  -->
<svg version="1.1" id="レイヤー_1" xmlns="http://www.w3.org/2000/svg" xmlns:xlink="http://www.w3.org/1999/xlink" x="0px"
	 y="0px" viewBox="0 0 512 512" style="enable-background:new 0 0 512 512;" xml:space="preserve">
<style type="text/css">
	.st0{fill:#0C60A9;}
</style>
<g id="レイヤー_5">
	<g>
		<path class="st0" d="M260,390.7c-2.6-0.6-5.1-1.4-7.7-2.2c-0.6-0.2-1.3-0.4-1.9-0.6c-2.5-0.8-5-1.6-7.4-2.4
			c-0.3-0.1-0.7-0.2-1-0.4c-2.2-0.8-4.4-1.6-6.5-2.4c-0.6-0.2-1.2-0.5-1.8-0.7c-2.4-0.9-4.7-1.9-7.1-2.9c-0.5-0.2-0.9-0.4-1.4-0.6
			c-2-0.9-4-1.8-5.9-2.8c-0.6-0.3-1.1-0.5-1.7-0.8c-1.6-0.7-3.1-1.6-4.6-2.3c-1-0.5-2.1-1-3.1-1.6c-1.9-1-3.7-2-5.5-3.1
			c-0.6-0.3-1.2-0.7-1.9-1c-2.4-1.4-4.8-2.9-7.2-4.4c-0.6-0.4-1.3-0.9-1.9-1.3c-1.7-1.1-3.4-2.2-5.1-3.4c-0.6-0.4-1.1-0.8-1.6-1.2
			c-1.6-1.2-3.2-2.3-4.8-3.5c-0.7-0.5-1.4-1.1-2.1-1.6c-1.5-1.1-2.9-2.2-4.4-3.4c-0.6-0.5-1.3-1-2-1.6c-1.8-1.5-3.6-3-5.4-4.6
			c-0.2-0.2-0.4-0.3-0.6-0.5c-1.9-1.7-3.8-3.4-5.7-5.2c-0.5-0.5-1.1-1-1.6-1.5c-1.4-1.3-2.8-2.7-4.1-4c-0.5-0.5-1.1-1.1-1.6-1.6
			c-1.7-1.8-3.4-3.5-5-5.3c-0.1-0.1-0.2-0.2-0.2-0.3c-1.7-1.9-3.4-3.9-5.1-5.8c-0.5-0.5-0.9-1-1.3-1.6c-1.2-1.5-2.5-3-3.7-4.5
			c-0.5-0.5-0.9-1.1-1.3-1.7c-1.4-1.9-2.9-3.7-4.2-5.6C95,252,81.2,180,111.8,120.8l-27.1,34.4c-34.8,50-30.4,115-3.9,168
			c0.6,1.3,1.3,2.5,2,3.8c0.4,0.8,0.8,1.6,1.2,2.4c0.2,0.5,0.5,0.9,0.8,1.4c0.5,0.9,0.9,1.7,1.4,2.5c0.8,1.4,1.7,2.9,2.5,4.3
			c0.5,0.8,1,1.6,1.4,2.4c1,1.6,1.9,3.1,2.9,4.6c0.4,0.6,0.8,1.3,1.3,1.9c1.4,2.1,2.8,4.1,4.3,6.2c0,0.1,0.1,0.1,0.1,0.2
			c0.2,0.3,0.5,0.6,0.7,1c1.3,1.7,2.6,3.5,3.9,5.2c0.5,0.6,1,1.3,1.5,1.9c1.2,1.5,2.4,2.9,3.6,4.4c0.5,0.5,0.9,1.1,1.4,1.6
			c1.6,1.9,3.3,3.8,5,5.7l0.1,0.1c0.1,0.1,0.1,0.1,0.2,0.2c1.7,1.8,3.4,3.6,5.1,5.4c0.5,0.6,1.1,1.1,1.6,1.6c1.3,1.3,2.7,2.7,4.1,4
			c0.6,0.5,1.1,1.1,1.7,1.6c1.8,1.7,3.7,3.4,5.6,5.1l0.1,0.1c0.3,0.3,0.7,0.6,1,0.8c1.7,1.4,3.3,2.9,5.1,4.3
			c0.7,0.6,1.4,1.1,2.1,1.7c1.4,1.1,2.8,2.2,4.2,3.3c0.7,0.6,1.5,1.2,2.2,1.7c1.6,1.2,3.1,2.3,4.7,3.4c0.6,0.4,1.1,0.8,1.7,1.2
			c0.2,0.1,0.3,0.2,0.5,0.3c1.5,1,3.1,2,4.6,3c0.7,0.4,1.3,0.9,2,1.3c2.4,1.5,4.8,3,7.2,4.4c0.7,0.4,1.3,0.7,2,1.1
			c1.8,1,3.6,2,5.4,3c1,0.5,2,1,3,1.5c1.3,0.7,2.6,1.4,3.9,2c0.3,0.2,0.6,0.3,0.9,0.4c0.5,0.2,1,0.5,1.6,0.8c2,1,4.1,1.9,6.1,2.8
			c0.4,0.2,0.9,0.4,1.3,0.6c2.4,1,4.7,2,7.1,3c0.6,0.2,1.2,0.5,1.7,0.7c2.2,0.9,4.5,1.7,6.7,2.5c0.3,0.1,0.6,0.2,0.9,0.3
			c2.5,0.9,5,1.7,7.5,2.5c0.6,0.2,1.2,0.4,1.8,0.5c2.6,0.8,5.1,1.7,7.8,2.2C394,470.6,442.8,339,442.8,339
			C401.8,392.4,329.1,406.5,260,390.7L260,390.7z M199.5,254.5c3.8,5.4,7.9,11.8,12.9,16.2c1.8,2,3.7,3.9,5.6,5.9
			c0.5,0.5,1,1,1.5,1.5c1.9,1.8,3.8,3.6,5.8,5.4c0.1,0.1,0.2,0.1,0.2,0.2c0,0,0,0,0.1,0.1c2.2,1.9,4.4,3.8,6.7,5.6
			c0.5,0.4,1,0.8,1.5,1.2c2.3,1.8,4.6,3.5,7,5.1c0.1,0.1,0.1,0.1,0.2,0.2c1.1,0.7,2.1,1.4,3.2,2.1c0.5,0.3,1,0.7,1.5,1
			c1.7,1.1,3.5,2.2,5.2,3.2c0.2,0.2,0.5,0.3,0.7,0.4c1.5,0.9,3.1,1.7,4.6,2.6c0.5,0.3,1.1,0.6,1.6,0.9c1.1,0.6,2.1,1.1,3.2,1.7
			c0.2,0.1,0.3,0.2,0.5,0.2c2.2,1.1,4.4,2.1,6.7,3.1c0.5,0.2,1,0.4,1.5,0.6c1.8,0.8,3.7,1.5,5.5,2.2c0.8,0.3,1.6,0.6,2.4,0.9
			c1.7,0.6,3.4,1.2,5.1,1.8c0.8,0.2,1.5,0.5,2.3,0.7c2.4,0.7,4.8,1.7,7.3,2.1C422.1,340.9,452,241,452,241
			c-27,38.9-79.3,57.4-135.1,43c-2.5-0.7-4.9-1.4-7.4-2.1c-0.7-0.2-1.5-0.5-2.2-0.7c-1.7-0.6-3.4-1.2-5.1-1.8
			c-0.8-0.3-1.6-0.6-2.3-0.9c-1.9-0.7-3.7-1.5-5.5-2.2c-0.5-0.2-1-0.4-1.5-0.6c-2.3-1-4.5-2-6.8-3.1c-1.2-0.6-2.3-1.2-3.4-1.7
			c-0.6-0.3-1.3-0.7-2-1c-1.4-0.8-2.9-1.6-4.3-2.4c-0.3-0.2-0.7-0.4-1-0.6c-1.8-1-3.5-2.1-5.2-3.2c-0.5-0.3-1-0.7-1.6-1
			c-1.1-0.7-2.3-1.5-3.4-2.2c-2.4-1.7-4.7-3.4-7-5.1c-0.5-0.4-1.1-0.8-1.6-1.2c-24.4-19.3-43.8-45.6-53-75.5
			c-9.7-31-7.6-65.8,9.2-94l-20.5,29c-25.1,36.2-23.8,84.6-4.2,122.8C191.6,242.4,195.3,248.6,199.5,254.5L199.5,254.5z
			 M336.3,209.8c1.1,0.4,2.1,0.7,3.2,1.1c0.5,0.1,0.9,0.3,1.4,0.5c1.5,0.5,3.1,1,4.6,1.3c71.7,13.8,91.1-36.8,96.3-44.2
			c-17,24.5-45.6,30.4-80.7,21.9c-2.8-0.7-5.8-1.7-8.5-2.6c-3.4-1.2-6.8-2.6-10.1-4.2c-6.2-3-12.2-6.6-17.7-10.8
			c-31.4-23.8-50.9-69.3-30.4-106.3l-11.1,15.3c-14.8,21.8-16.3,48.9-6,73C288.1,180.2,310.3,200.2,336.3,209.8L336.3,209.8z"/>
	</g>
</g>
</svg>
